<svg width="694" height="394" viewBox="0 0 694 394" fill="none" xmlns="http://www.w3.org/2000/svg">
    <path d="M7 135.034L53.5296 195.517V370.48C53.9765 372.708 55.5586 379.28 61.1205 384.654C66.338 389.69 72.0146 390.734 74.1222 391C273.834 391 473.54 391 673.252 391C675.438 390.495 680.408 389.004 684.919 384.282C688.59 380.431 690.257 376.22 690.994 373.939C690.994 255.494 691 137.043 691 18.5985C690.68 17.0288 689.297 11.1687 684.146 6.93835C679.544 3.16691 674.731 2.98729 673.155 3.00059C473.196 3.00059 273.23 3.00059 73.2647 3.00059C70.4627 3.22009 64.4902 4.14469 58.874 8.89391C56.3256 11.049 54.5502 13.4036 53.3605 15.306C53.5658 59.4591 53.7651 103.612 53.9704 147.765L7 135.034Z" fill="white" stroke="#325AE4" stroke-width="5" stroke-miterlimit="10"/>
</svg>
