<svg width="1440" height="835" viewBox="0 0 1440 835" fill="none" xmlns="http://www.w3.org/2000/svg">
    <g clip-path="url(#clip0)">
        <path d="M161.451 440.514C163.11 440.514 164.455 439.169 164.455 437.51C164.455 435.851 163.11 434.506 161.451 434.506C159.792 434.506 158.448 435.851 158.448 437.51C158.448 439.169 159.792 440.514 161.451 440.514Z" stroke="#F7CBDF" stroke-miterlimit="10"/>
        <path d="M917.361 761.315V0" stroke="#869FC7" stroke-width="5" stroke-miterlimit="10"/>
        <path d="M1077.04 0V761.315" stroke="#869FC7" stroke-width="5" stroke-miterlimit="10"/>
        <path d="M1234.83 0V761.315" stroke="#869FC7" stroke-width="5" stroke-miterlimit="10"/>
        <path d="M1393.88 0V761.315" stroke="#869FC7" stroke-width="5" stroke-miterlimit="10"/>
        <path d="M724.841 495.816V754.008" stroke="#869FC7" stroke-width="5" stroke-miterlimit="10"/>
        <path d="M357.316 497.717V755.908" stroke="#869FC7" stroke-width="5" stroke-miterlimit="10"/>
        <path d="M56.2186 435.695V823.122" stroke="#869FC7" stroke-width="5" stroke-miterlimit="10"/>
        <path opacity="0.65" d="M1440 0H0V914H1440V0Z" fill="#DADFF0"/>
        <path opacity="0.59" d="M727.192 0C727.04 136.828 726.888 273.649 726.736 410.477H0V437.248L755.568 434.51V0C746.113 0 736.653 0 727.192 0Z" fill="#114B9F"/>
        <path opacity="0.22" d="M0 0H727.192L726.736 410.477H0V0Z" fill="white"/>
        <path opacity="0.75" d="M342.527 94.282C357.551 94.282 369.73 82.1004 369.73 67.0736C369.73 52.0468 357.551 39.8652 342.527 39.8652C327.503 39.8652 315.324 52.0468 315.324 67.0736C315.324 82.1004 327.503 94.282 342.527 94.282Z" fill="#A5B3E2"/>
        <path d="M286.251 175.919C301.275 175.919 313.454 163.737 313.454 148.71C313.454 133.684 301.275 121.502 286.251 121.502C271.227 121.502 259.048 133.684 259.048 148.71C259.048 163.737 271.227 175.919 286.251 175.919Z" fill="#325AE4"/>
        <path opacity="0.88" d="M401.641 148.704C416.665 148.704 428.844 136.522 428.844 121.495C428.844 106.469 416.665 94.2871 401.641 94.2871C386.617 94.2871 374.438 106.469 374.438 121.495C374.438 136.522 386.617 148.704 401.641 148.704Z" fill="#325AE4"/>
        <path opacity="0.93" d="M472.193 56.1023C487.217 56.1023 499.396 43.9207 499.396 28.8939C499.396 13.8672 487.217 1.68555 472.193 1.68555C457.169 1.68555 444.99 13.8672 444.99 28.8939C444.99 43.9207 457.169 56.1023 472.193 56.1023Z" fill="#325AE4"/>
        <path d="M328.783 56.1035H355.042L342.527 67.0743L328.783 56.1035Z" fill="white"/>
        <path d="M328.783 57.8965L342.527 68.7912L355.042 57.8965V78.2473H328.783V57.8965Z" fill="white"/>
        <path d="M385.977 107.99H416.253V127.371H399.544L392.757 134.159L393.486 126.89L385.977 127.131V107.99Z" fill="white"/>
        <path d="M390.825 112.84H411.653" stroke="#325AE4" stroke-width="2" stroke-miterlimit="10"/>
        <path d="M411.653 118.17H390.825H411.653Z" fill="white" stroke="#325AE4" stroke-width="2" stroke-miterlimit="10"/>
        <path d="M411.653 123.24H390.825H411.653Z" fill="white" stroke="#325AE4" stroke-width="2" stroke-miterlimit="10"/>
        <path d="M270.581 140.048C275.802 137.145 281.03 134.243 286.251 131.34L302.365 140.048C302.796 142.628 303.176 146.513 302.581 151.152C301.934 156.191 301.282 161.305 297.251 165.013C293.507 168.461 288.729 168.961 286.245 169.006C283.431 168.48 278.983 167.123 275.58 163.346C271.689 159.017 271.1 153.668 270.568 148.801C270.181 145.201 270.352 142.165 270.581 140.048Z" fill="white"/>
        <path d="M286.27 133.133C286.384 144.509 286.505 155.886 286.619 167.262C287.905 167.364 290.554 167.402 293.361 165.995C296.878 164.239 298.487 161.305 299.248 159.866C300.819 156.906 300.99 154.327 301.282 149.998C301.446 147.583 301.478 144.56 301.123 141.087C296.168 138.444 291.219 135.788 286.27 133.133Z" fill="#325AE4"/>
        <path d="M484.246 16.4219H458.988V39.8656H484.246V16.4219Z" fill="white"/>
        <path d="M460.458 37.9768V33.2487L466.471 24.5469L473.023 32.8178L477.32 29.4904L483.333 37.9768H460.458Z" fill="#325AE4"/>
        <path d="M478.099 22.9877C479.24 22.9877 480.165 22.0627 480.165 20.9216C480.165 19.7805 479.24 18.8555 478.099 18.8555C476.958 18.8555 476.033 19.7805 476.033 20.9216C476.033 22.0627 476.958 22.9877 478.099 22.9877Z" fill="#325AE4"/>
        <path opacity="0.81" d="M1254.11 484.091C1239.34 466.104 1224.57 448.117 1209.81 430.124C1171.88 380.15 1167.7 367.386 1170.46 364.774C1173.28 362.106 1186.33 367.195 1237.95 411.503C1260.35 435.701 1282.74 459.899 1305.14 484.091" fill="#1D2088"/>
        <path d="M1244.43 306.695C1297.31 307.304 1350.2 307.919 1403.08 308.527C1405.79 359.933 1408.51 411.34 1411.22 462.746L1346.36 477.912L1254.95 499.29C1251.44 435.087 1247.93 370.891 1244.43 306.695Z" fill="#325AE4"/>
        <path opacity="0.91" d="M855.623 0C919.743 105.335 1026.83 159.555 1128.55 138.114C1234.15 115.856 1290.42 21.2318 1301.39 1.92671C1297.9 1.28658 1294.4 0.640123 1290.91 0C1283.21 11.8011 1208 122.859 1077.04 121.788C948.41 120.736 875.051 12.3715 866.972 0C863.189 0 859.406 0 855.623 0Z" fill="#DE5246"/>
        <path opacity="0.48" d="M1004.34 -3.80387C1052.41 141.834 1194.28 223.649 1319.65 195.959C1411.81 175.602 1486.46 97.9693 1513.97 -1.75675C1510.48 -2.68207 1506.98 -3.6074 1503.49 -4.53906C1429.86 158.065 1265.16 228.104 1148.25 181.737C1041.08 139.235 1008.3 12.4971 1004.34 -3.80387Z" fill="#C85045"/>
        <path opacity="0.73" d="M898.845 -8.01143C888.13 -14.2796 750.53 112.756 599.572 107.851C498.889 104.587 421.944 43.5977 373.05 -6.75653C376.656 -7.3206 380.261 -7.89101 383.861 -8.45508C477.174 73.8165 607.259 119.151 700.851 101.855C758.73 91.1569 822.356 52.8573 831.062 47.6159C869.83 24.2736 904.067 -4.95659 898.845 -8.01143Z" fill="#CA556B"/>
        <path d="M1010.23 -3.1818C1050.59 89.1099 1144.74 140.7 1232.74 124.367C1335.53 105.284 1377.48 3.26379 1380 -3.1818L1369.59 -4.86133C1344.04 71.4464 1271.84 122.662 1192.14 121.357C1114.58 120.089 1045.53 69.3612 1020.7 -4.86133C1017.21 -4.3036 1013.72 -3.73953 1010.23 -3.1818Z" fill="#E1AA23"/>
        <path d="M1272.81 580.604C1272.96 529.755 1274.2 477.151 1276.73 422.906C1278.26 390.234 1280.2 358.215 1282.52 326.881C1343.1 333.301 1403.68 339.721 1464.26 346.135C1460.04 435.531 1455.82 524.919 1451.6 614.315C1392 603.078 1332.4 591.841 1272.81 580.604Z" fill="#A5B3E2"/>
        <path d="M1324 482.697C1341.44 443.789 1370.77 427.076 1385.3 433.642C1397.01 438.934 1401.89 460.61 1399.31 484.091" fill="white"/>
        <path d="M1324 482.697C1341.44 443.789 1370.77 427.076 1385.3 433.642C1397.01 438.934 1401.89 460.61 1399.31 484.091" stroke="#30589F" stroke-width="7" stroke-miterlimit="10"/>
        <path d="M1339.44 457.002C1329.67 453.339 1305.51 445.765 1275.48 452.052C1242.19 459.018 1221.91 478.785 1214.94 486.245H1324C1324.21 482.911 1324.93 478.145 1327.18 472.898C1330.77 464.551 1336.34 459.449 1339.44 457.002Z" fill="white" stroke="#114B9F" stroke-width="5" stroke-miterlimit="10"/>
        <path opacity="0.4" d="M1254.23 486.111C1179.84 458.472 1163.48 446.215 1164.88 440.339C1166.56 433.235 1194.85 432.759 1215.93 437.576C1253.44 446.151 1275.37 473.157 1282.94 483.513" fill="#1D2088"/>
        <path d="M1305.14 345.197L1358.13 352.727" stroke="white" stroke-width="5" stroke-miterlimit="10"/>
        <path d="M1301.32 362.836L1354.31 370.365" stroke="white" stroke-width="5" stroke-miterlimit="10"/>
        <path d="M1297.5 380.467L1350.49 387.996" stroke="white" stroke-width="5" stroke-miterlimit="10"/>
        <path d="M868.962 326.881L977.28 329.27L974.993 370.929L867.884 363.457L868.962 326.881L977.28 329.27L868.962 326.881Z" fill="#869FC7"/>
        <path d="M849.065 471.396C989.925 471.396 1104.11 447.339 1104.11 417.664C1104.11 387.988 989.925 363.932 849.065 363.932C708.205 363.932 594.015 387.988 594.015 417.664C594.015 447.339 708.205 471.396 849.065 471.396Z" fill="white"/>
        <path opacity="0.74" d="M662.66 478.147C662.66 478.147 666.215 480.961 669.871 483.033C702.226 501.35 969.404 507.744 1035.36 483.223C1055.35 475.795 1065.35 472.075 1068.65 469.21C1068.65 469.21 1070.7 467.436 1089.55 458.594C1094.95 455.654 1099.82 452.846 1104.12 450.273C1104.12 439.403 1104.12 428.534 1104.12 417.658C1076.68 435.075 1051.41 445.494 1032.4 451.864C1025.45 454.19 994.573 464.273 951.788 468.152C944.254 468.836 937.036 469.122 922.899 469.667C893.738 470.795 861.833 472.113 820.322 471.048C784.938 470.142 759.078 467.981 750.365 467.214C723.846 464.882 706.25 462.283 695.997 460.635C687.772 459.311 680.865 458.049 675.821 457.086C675.808 457.086 668.528 455.749 668.528 455.749C668.477 455.736 663.705 454.608 659.143 453.397C655.271 452.371 651.387 451.407 647.515 450.387C644.391 449.563 644.094 449.538 643.821 449.778C641.502 451.851 649.258 467.531 662.66 478.147Z" fill="#2E5A9C"/>
        <path d="M1075.17 392.776V341.033C1075.63 338.53 1077.3 336.635 1079.09 336.413C1081.5 336.115 1084.6 338.809 1084.45 342.916C1083.83 360.465 1083.2 378.015 1082.58 395.564C1080.11 394.639 1077.64 393.707 1075.17 392.776Z" fill="#2E5A9C"/>
        <path d="M1123.99 484.091L1132.72 358.044C1132.45 353.012 1134.38 349.057 1136.54 348.62C1138.92 348.138 1142.94 351.668 1144.02 358.044C1140.68 400.058 1137.34 442.078 1134.01 484.091C1130.67 484.091 1127.33 484.091 1123.99 484.091Z" fill="#2E5A9C"/>
        <path d="M856.979 363.958C856.542 350.249 856.098 336.534 855.661 322.825C855.255 318.566 858.684 315.03 862.479 315.131C866.009 315.226 869.114 318.446 868.961 322.407C868.6 336.09 868.245 349.774 867.884 363.457C864.247 363.622 860.61 363.793 856.979 363.958Z" fill="#2E5A9C"/>
        <path d="M577.134 247.456C579.58 254.275 582.654 264.663 583.934 277.637C585.543 293.9 586.969 308.363 578.915 322.807C576.722 326.736 564.575 347.252 540.623 349.381C519.42 351.264 504.77 337.339 502.508 335.115L485.266 302.342C474.272 303.787 464.501 299.75 460.844 292.398C457.587 285.844 458.722 275.716 463.423 273.6C466.547 272.186 470.704 274.563 472.269 275.463C476.35 277.795 478.251 281.319 478.948 282.802C480.716 275.615 482.484 268.428 484.246 261.241L509.649 233.811L577.134 247.456Z" fill="#EBBBAA"/>
        <path d="M488.694 345.999L536.51 385.357L555.444 355.962V345.352L485.266 302.344L488.694 345.999Z" fill="#EBBBAA"/>
        <path d="M154.468 315.359C161.191 311.309 170.588 304.616 179.599 294.172C188.261 284.126 193.407 274.264 196.442 267.191C199.471 272.585 205.554 281.711 216.402 289.336C224.234 294.843 231.775 297.613 237.034 299.071C239.221 304.452 242.211 313.743 242.135 325.614C242.059 337.706 238.834 347.105 236.534 352.48C228.55 365.586 214.254 373.445 199.217 372.907C182.482 372.305 167.515 361.391 161.451 345.299C159.125 335.311 156.794 325.335 154.468 315.359Z" fill="#EBBBAA"/>
        <path d="M196.442 237.214C190.422 234.907 179.612 231.77 167.598 234.609C139.279 241.302 118.387 277.833 120.77 307.869C122.272 326.831 132.398 334.874 129.926 356.981C128.558 369.219 124.109 378.795 120.77 384.734C138.633 382.262 156.502 379.79 174.365 377.319C174.91 369.865 173.123 365.194 171.343 362.292C169.974 360.054 169.023 359.528 166.793 356.119C163.865 351.644 162.383 347.784 161.445 345.3C159.747 340.8 159.449 338.512 157.098 327.44C156.388 324.081 155.507 320.006 154.468 315.373C162.288 310.632 173.491 302.481 183.515 289.356C189.636 281.332 193.711 273.562 196.436 267.205C199.465 272.598 205.548 281.725 216.396 289.349C224.228 294.857 231.769 297.627 237.028 299.084C239.183 303.768 244.733 317.445 241.432 334.899C238.023 352.924 227.282 363.813 223.556 367.286C237.909 368.56 252.261 369.84 266.614 371.114C263.446 363.724 259.105 351.828 257.046 336.699C253.662 311.868 260.322 306.823 256.444 288.063C256.019 286.016 247.452 247.234 218.018 238.222C209.464 235.592 201.638 236.257 196.442 237.214Z" fill="#2A343B"/>
        <path d="M192.076 304.644C190.365 303.675 187.064 302.096 182.609 301.818C177.514 301.501 173.624 303.047 171.812 303.909C174.859 303.713 178.218 303.637 181.842 303.763C185.562 303.896 188.984 304.22 192.076 304.644Z" fill="#2A343B"/>
        <path d="M209.502 303.127C211.073 301.853 214.166 299.699 218.627 298.615C223.727 297.379 227.922 298.203 229.893 298.729C226.775 299.09 223.36 299.623 219.716 300.402C215.978 301.207 212.562 302.145 209.502 303.127Z" fill="#2A343B"/>
        <path d="M181.988 321.97C184.137 321.97 185.879 319.424 185.879 316.285C185.879 313.145 184.137 310.6 181.988 310.6C179.839 310.6 178.097 313.145 178.097 316.285C178.097 319.424 179.839 321.97 181.988 321.97Z" fill="#2A343B"/>
        <path d="M219.343 317.52C221.134 317.52 222.587 315.074 222.587 312.057C222.587 309.04 221.134 306.594 219.343 306.594C217.551 306.594 216.098 309.04 216.098 312.057C216.098 315.074 217.551 317.52 219.343 317.52Z" fill="#2A343B"/>
        <path d="M186.291 314.131C186.208 311.501 183.914 309.562 181.576 309.815C179.517 310.037 177.806 311.907 177.787 314.201" stroke="#2A343B" stroke-miterlimit="10"/>
        <path d="M223.322 310.524C223.24 307.413 221.098 305.118 218.905 305.41C216.979 305.67 215.376 307.888 215.357 310.6" stroke="#2A343B" stroke-miterlimit="10"/>
        <path d="M178.237 314.77L175.582 311.994C176.627 312.393 177.673 312.799 178.718 313.198C178.554 313.724 178.395 314.244 178.237 314.77Z" fill="#2A343B"/>
        <path d="M221.776 308.458L224.203 306.297L222.467 310.6L221.776 308.458Z" fill="#2A343B"/>
        <path d="M205.072 306.594L212.341 335.957L201.613 340.108" stroke="#2A343B" stroke-width="2" stroke-miterlimit="10"/>
        <path d="M207.113 356.333C209.514 355.871 212.131 354.128 212.79 353.684C215.813 351.669 218.069 349.121 219.552 347.181C213.221 349.349 208.108 349.4 204.8 349.089C202.392 348.861 199.217 348.531 195.295 346.484C192.323 344.931 191.227 343.6 191.119 343.892C190.809 344.729 198.856 357.918 207.113 356.333Z" fill="#2A343B"/>
        <path d="M169.942 359.168C171.419 365.214 172.895 371.267 174.371 377.313C184.035 415.023 191.645 435.45 195.979 445.851C198.97 453.025 203.273 462.323 206.752 461.765C208.665 461.454 209.628 458.286 210.306 455.979C216.212 435.799 217.118 427.154 217.118 427.154C218.55 413.426 220.661 399.749 221.472 385.971C221.554 384.589 221.725 381.439 222.593 377.307C223.949 370.849 226.186 365.842 227.859 362.628C225.584 364.625 215.034 373.447 199.224 372.896C182.083 372.306 171.729 361.158 169.942 359.168Z" fill="#EBBBAA"/>
        <path opacity="0.61" d="M849.065 471.392C858.728 471.24 872.276 471.012 888.491 470.663C937.188 469.611 947.365 468.857 957.123 467.786C969.923 466.379 984.897 464.674 1004.14 459.756C1035.87 451.656 1066.31 438.125 1068.64 437.25V469.218C1052.29 477.337 1033.66 485.177 1012.8 491.787C948.011 512.309 889.714 512.081 849.058 507.879C849.065 495.71 849.065 483.554 849.065 471.392Z" fill="white"/>
        <path d="M974.992 370.931L977.648 322.415C977.762 322.18 979.606 318.511 983.021 318.194C986.443 317.877 990.232 321.046 990.695 325.869C988.889 341.32 987.076 356.778 985.271 372.23L974.992 370.931Z" fill="#2E5A9C"/>
        <path d="M1083.96 354.236C1100.08 357.475 1116.19 360.72 1132.31 363.959L1127.03 440.241L1104.12 437.243V417.665C1104.3 416.284 1104.37 414.047 1103.34 411.74C1102.67 410.244 1101.76 409.242 1098.98 406.872C1096.11 404.432 1093.92 402.575 1089.97 399.97C1088.12 398.747 1085.63 397.207 1082.58 395.565C1083.04 381.793 1083.49 368.015 1083.96 354.236Z" fill="#869FC7"/>
        <path opacity="0.4" d="M0 874.852L127.651 757.399L1308.99 750.814L1440 874.852V914.001H0V874.852Z" fill="#2E5A9C"/>
        <path d="M478.942 282.795C480.526 279.639 482.269 275.354 483.308 270.081C483.96 266.779 484.201 263.781 484.239 261.227C487.015 261.24 493.015 260.866 498.826 256.955C510.023 249.42 510.365 235.591 510.378 234.171C516.499 237.974 524.876 242.315 535.37 245.433C547.314 248.982 562.154 253.4 577.667 247.239C581 245.915 589.852 242.264 596.252 233.049C598.229 230.203 606.517 218.276 601.949 205.137C599.376 197.741 593.939 193.437 591.29 191.625C589.643 191.593 582.863 191.644 576.906 196.778C571.533 201.41 570.208 207.267 569.879 209.029C536.111 191.853 502.305 192.284 485.88 209.472C482.509 212.996 478.486 218.681 476.204 227.77C475.412 227.364 466.148 222.775 460.211 227.11C458.151 228.619 457.144 230.723 456.193 232.7C453.684 237.936 453.589 242.841 453.754 245.617C454.844 248.133 456.054 250.7 457.416 253.311C463.842 265.645 471.61 275.348 478.942 282.795Z" fill="#2A343B" stroke="black" stroke-miterlimit="10"/>
        <path d="M498.446 314.719C502.134 320.442 513.052 335.665 533.304 342.307C541.96 345.147 549.754 345.578 555.438 345.356C555.438 347.733 555.438 350.103 555.438 352.48C551.122 352.911 535.084 353.982 519.496 343.302C504.789 333.213 499.789 319.035 498.446 314.719Z" fill="#2A343B"/>
        <path d="M488.694 345.996L536.516 385.354L555.444 354.463C594.687 384.549 620.198 415.415 636.154 438.085C646.609 452.941 726.267 566.11 687.436 621.046C681.404 629.583 673.806 634.869 667.938 638.12C668.73 643.678 669.529 649.237 670.321 654.795C661.329 658.915 648.149 664.479 631.775 669.67C622.625 672.573 585.771 683.816 514.82 685.876C485.082 686.738 445.63 686.098 399.202 680.299C400.076 668.333 400.95 656.367 401.825 644.407C387.124 638.817 365.18 629.165 341.158 612.965C307.663 590.371 273.724 567.656 269.712 534.591C266.145 505.216 287.011 482.146 318.112 447.763C363.425 397.669 416.361 374.96 439.522 365.301C453.899 359.306 466.307 355.186 475.241 352.48C479.728 350.312 484.207 348.157 488.694 345.996Z" fill="#325AE4"/>
        <path d="M410.924 548.362L388.645 534.387L414.866 485.225L410.924 548.362Z" fill="white"/>
        <path d="M436.315 643.158L438.406 561.425L445.731 559.004C447.011 548.014 448.285 537.024 449.565 526.035C450.687 521.681 453.468 518.144 456.719 517.605C461.37 516.838 467.827 522.08 468.214 530.889C465.939 541.068 463.664 551.247 461.389 561.425C472.922 559.847 490.975 558.82 496.824 568.194C498.883 571.496 500.847 579.526 497.407 583.405C495.601 585.439 493.18 585.331 492.857 587.087C492.35 589.819 498.034 591.017 499.732 596.353C501.025 600.435 499.194 604.434 498.985 604.871C497.552 607.888 494.352 611 494.352 611C496.691 614.074 496.779 614.207 496.779 614.207C499.054 617.794 496.241 623.72 495.398 625.494C493.687 629.101 491.235 631.56 489.27 633.112C490.234 637.783 489.391 640.699 488.314 642.55C483.01 651.701 462.181 652.183 436.315 643.158Z" fill="#EBBBAA"/>
        <path d="M401.755 716.989L396.255 914.007H500.702H522.208C535.667 876.5 549.126 838.992 562.585 801.485C574.162 825.943 585.739 850.4 597.316 874.852L589.605 914.001H689.236H720.006C722.991 903.898 726.73 889.816 729.917 872.76C731.336 865.149 735.012 845.476 735.563 830.487C736.406 807.601 726.457 784.259 706.541 738.518C691.333 703.597 680.181 678.125 676.157 668.941C584.681 684.957 493.218 700.973 401.755 716.989Z" fill="#727171"/>
        <path d="M569.892 770.605L597.316 874.85L562.585 801.483L569.892 770.605Z" fill="#2A343B"/>
        <path d="M436.315 719.289L427.653 914" stroke="#2A343B" stroke-width="2" stroke-miterlimit="10"/>
        <path d="M649.296 678.232C659.029 696.359 666.779 711.696 672.323 722.933C679.547 737.567 688.108 757.227 705.229 796.547C715.469 820.073 719.081 828.718 719.081 842.015C719.081 845.533 718.828 851.357 713.454 876.658C710.115 892.363 707.004 905.222 704.792 914" stroke="#2A343B" stroke-width="2" stroke-miterlimit="10"/>
        <path d="M538.893 776.627C557.415 771.525 575.937 766.416 594.458 761.314C590.758 763.482 587.057 765.656 583.363 767.823L538.893 776.627Z" fill="#2A343B"/>
        <path d="M562.338 750.814C561.692 742.657 561.394 733.36 561.819 723.149C562.123 715.861 562.75 709.111 563.549 702.982L562.338 750.814Z" fill="#2A343B"/>
        <path d="M575.208 701.029C574.346 713.642 573.928 723.554 573.7 730.259C573.472 737.016 573.415 741.376 570.969 746.129C567.591 752.689 561.793 755.864 558.08 757.398C560.583 755.921 564.493 753.133 567.541 748.215C572.312 740.514 572.667 731.28 572.946 724.156C573.142 719.041 572.8 714.466 574.086 706.664C574.479 704.262 574.91 702.316 575.208 701.029Z" fill="#2A343B"/>
        <path d="M558.08 705.826V750.812" stroke="#2A343B" stroke-miterlimit="10"/>
        <path d="M207.639 0C212.22 15.9017 223.049 61.7243 199.908 103.662C168.212 161.089 84.9045 189.305 0 161.317C0 167.928 0 174.532 0 181.142C98.9719 216.964 197.507 186.219 235.609 120.14C263.274 72.1437 251.482 18.6586 246.406 0C233.48 0 220.559 0 207.639 0Z" fill="#325AE4"/>
        <path opacity="0.8" d="M0 0H207.639C211.118 12.8025 223.975 65.7868 194.775 112.04C159.848 167.376 78.5046 191.27 0 161.317C0 107.541 0 53.7703 0 0Z" fill="#A5B3E2"/>
        <path d="M182.039 363.932C183.927 366.714 188.509 372.558 196.493 375.22C206.536 378.573 219.552 376.075 225.476 367.798C226.82 365.922 227.568 364.065 227.998 362.658C225.597 364.604 216.092 371.829 202.392 371.183C192.114 370.688 184.903 366.024 182.039 363.932Z" fill="#2A343B"/>
        <path d="M175.537 382.147C169.011 385.987 165.659 388.351 163.789 389.853C163.181 390.341 162.009 391.216 159.67 392.965C157.364 394.689 156.876 395.025 156.065 395.374C154.354 396.109 153.695 395.849 151.408 396.464C149.405 397.002 148.093 397.687 147.149 398.137C142.524 400.336 130.192 404.684 126.365 406.161C114.959 410.565 103.864 418.608 97.5715 423.07C71.0146 441.9 56.4404 463.189 52.5117 469.165C44.0776 481.987 35.181 495.505 31.5311 515.184C23.0146 561.026 50.9212 597.545 53.5952 600.954C68.8982 620.437 87.2935 629.044 112.177 640.686C137.708 652.633 160.507 658.236 176.133 661.082V594.661C178.845 593.127 183.287 591.036 189.11 590.142C194.167 589.362 199.914 588.482 205.364 591.669C212.499 595.84 214.153 604.085 214.47 605.879C221.681 604.947 229.361 603.705 237.427 602.064C245.297 600.46 252.673 598.66 259.523 596.752C264.656 581.928 269.782 567.11 274.915 552.286C273.007 548.477 270.511 542.386 269.693 534.578C268.394 522.08 272.165 512.37 274.82 505.525C276.683 500.734 279.807 494.029 285.11 486.753C293.697 476.416 302.283 466.079 310.875 455.742C307.384 445.119 303.214 436.88 299.945 431.201C293.228 419.533 287.943 410.356 277.488 404.247C270.973 400.438 268.914 401.597 256.241 396.958C245.526 393.041 237.199 388.63 231.731 385.43C228.892 382.444 226.053 379.466 223.221 376.48C222.948 378.014 222.46 380.79 221.928 384.263C218.582 406.129 219.469 416.092 215.914 434.618C215.211 438.274 214.299 441.577 212.474 448.174C209.058 460.508 208.006 461.503 207.024 461.667C203.552 462.232 199.129 452.56 195.656 444.961C194.085 441.519 192.672 438.027 189.744 429.459C185.955 418.374 183.167 409.177 181.304 402.821C179.751 397.503 177.749 390.481 175.537 382.147Z" fill="#E35973"/>
        <path opacity="0.83" d="M157.263 398.061C155.545 409.691 154.272 423.001 154.031 437.692C153.777 453.22 154.728 467.258 156.198 479.452C157.06 486.614 162.142 492.21 168.396 493.281C174.916 494.397 179.897 490.106 180.594 489.485C189.408 480.219 198.223 470.953 207.043 461.687C210.966 466.935 215.604 472.518 221.079 478.159C223.873 481.037 226.642 483.686 229.348 486.119C225.103 486.075 238.074 487.134 242.078 485.72C248.073 483.603 252.268 476.67 252.882 470.478C253.085 468.405 252.844 466.871 250.424 458.708C248.219 451.28 247.116 447.566 245.253 442.249C242.205 433.56 242.877 434.574 237.801 418.983C234.798 409.767 230.051 395.552 223.24 376.5L232.396 399.31L247.598 443.694C250.158 452.465 252.711 461.237 255.271 470.009C255.575 477.69 251.964 484.757 245.861 488.072C240.9 490.765 233.657 491.336 228.892 487.989C228.423 487.66 228.214 487.457 225.787 484.795C219.843 478.292 216.871 475.035 215.369 473.203C213.114 470.44 210.199 466.669 207.037 461.947C199.623 470.015 195.137 475.732 192.355 479.591C191.981 480.111 189.706 483.267 186.221 487.07C183.059 490.518 181.475 492.248 178.997 493.706C177.812 494.403 172.61 497.471 167.034 496.361C160.881 495.132 155.875 489.136 154.335 481.398C154.221 480.688 154.101 479.984 153.987 479.275C153.036 470.528 152.447 460.939 152.497 450.615C152.523 445.399 152.707 440.392 153.017 435.607C153.771 425.58 154.519 415.554 155.273 405.527L157.263 398.061Z" fill="#8F384A"/>
        <path d="M88.4531 518.791L107.685 466.193L184.497 531.346L165.817 585.516L88.4531 518.791Z" fill="#869FC7"/>
        <path d="M192.906 531.348L171.254 588.585L165.817 585.517L184.497 531.348H192.906Z" fill="#627594"/>
        <path d="M107.685 466.193H117.209L192.906 531.346H184.497L107.685 466.193Z" fill="white"/>
        <path opacity="0.76" d="M274.383 451.496L290.376 479.75L285.129 486.766L274.383 451.496Z" fill="#8F384A"/>
        <path opacity="0.9" d="M214.482 605.878C221.529 604.966 229.012 603.762 236.863 602.177C244.949 600.548 252.521 598.698 259.542 596.752C259.232 599.889 259.023 603.312 258.991 606.981C258.959 611.291 259.181 615.271 259.542 618.858C244.524 620.354 229.5 621.856 214.482 623.352C214.977 621.248 215.401 618.63 215.484 615.607C215.585 611.703 215.065 608.376 214.482 605.878Z" fill="#8F384A"/>
        <path d="M99.7513 634.799C97.5715 643.292 94.9354 655.815 93.8772 671.121C91.3806 707.241 99.3267 734.842 107.837 763.419C113.419 782.16 122.31 807.283 136.776 835.702C175.227 835.702 213.671 835.702 252.122 835.702C268.648 803.221 277.785 774.606 283.076 754.001C292.112 718.807 297.632 696.168 289.983 669.049C283.197 644.997 269.136 628.328 259.542 618.859C244.524 620.355 229.5 621.857 214.482 623.353C213.779 626.344 211.289 635.224 202.886 642.037C191.563 651.22 178.37 649.465 176.146 649.135C176.146 653.115 176.146 657.096 176.146 661.076C164.093 658.972 150.013 655.625 134.704 650.206C121.226 645.44 109.548 640.028 99.7513 634.799Z" fill="#727171"/>
        <path d="M309.38 590.521L289.983 669.047C287.126 660.295 282.449 649.096 274.585 637.352C269.548 629.829 264.301 623.713 259.536 618.858C258.928 616.291 258.408 613.16 258.275 609.567C258.085 604.401 258.763 600.022 259.536 596.752C264.669 581.927 269.795 567.109 274.928 552.285C278.368 558.401 283.305 565.899 290.281 573.593C297.03 581.04 303.778 586.554 309.38 590.521Z" fill="#CA556B"/>
        <path d="M274.934 552.293L259.542 618.866C258.604 616.236 257.451 611.957 257.641 606.634C257.793 602.482 258.706 599.098 259.542 596.759C264.668 581.935 269.801 567.111 274.934 552.293Z" fill="#8F384A"/>
        <path d="M227.998 406.598C228.828 406.598 229.5 405.925 229.5 405.096C229.5 404.266 228.828 403.594 227.998 403.594C227.169 403.594 226.497 404.266 226.497 405.096C226.497 405.925 227.169 406.598 227.998 406.598Z" stroke="#F7CBDF" stroke-miterlimit="10"/>
        <path d="M161.451 414.178C163.11 414.178 164.455 412.833 164.455 411.174C164.455 409.515 163.11 408.17 161.451 408.17C159.792 408.17 158.448 409.515 158.448 411.174C158.448 412.833 159.792 414.178 161.451 414.178Z" stroke="#F7CBDF" stroke-miterlimit="10"/>
        <path d="M236.534 482.754C238.193 482.754 239.537 481.409 239.537 479.75C239.537 478.091 238.193 476.746 236.534 476.746C234.875 476.746 233.53 478.091 233.53 479.75C233.53 481.409 234.875 482.754 236.534 482.754Z" stroke="#F7CBDF" stroke-miterlimit="10"/>
        <path d="M236.534 436.043C238.193 436.043 239.537 434.698 239.537 433.039C239.537 431.38 238.193 430.035 236.534 430.035C234.875 430.035 233.53 431.38 233.53 433.039C233.53 434.698 234.875 436.043 236.534 436.043Z" stroke="#F7CBDF" stroke-miterlimit="10"/>
        <path d="M161.451 459.778C163.11 459.778 164.455 458.433 164.455 456.774C164.455 455.115 163.11 453.77 161.451 453.77C159.792 453.77 158.448 455.115 158.448 456.774C158.448 458.433 159.792 459.778 161.451 459.778Z" stroke="#F7CBDF" stroke-miterlimit="10"/>
        <path d="M160.31 473.483C161.969 473.483 163.314 472.138 163.314 470.479C163.314 468.82 161.969 467.475 160.31 467.475C158.652 467.475 157.307 468.82 157.307 470.479C157.307 472.138 158.652 473.483 160.31 473.483Z" stroke="#F7CBDF" stroke-miterlimit="10"/>
        <path d="M164.455 486.766C166.113 486.766 167.458 485.421 167.458 483.762C167.458 482.103 166.113 480.758 164.455 480.758C162.796 480.758 161.451 482.103 161.451 483.762C161.451 485.421 162.796 486.766 164.455 486.766Z" stroke="#F7CBDF" stroke-miterlimit="10"/>
        <path d="M179.143 483.762C180.802 483.762 182.147 482.417 182.147 480.758C182.147 479.099 180.802 477.754 179.143 477.754C177.484 477.754 176.139 479.099 176.139 480.758C176.139 482.417 177.484 483.762 179.143 483.762Z" stroke="#F7CBDF" stroke-miterlimit="10"/>
        <path d="M191.107 472.137C192.765 472.137 194.11 470.792 194.11 469.133C194.11 467.474 192.765 466.129 191.107 466.129C189.448 466.129 188.103 467.474 188.103 469.133C188.103 470.792 189.448 472.137 191.107 472.137Z" stroke="#F7CBDF" stroke-miterlimit="10"/>
        <path d="M246.229 475.141C247.888 475.141 249.232 473.796 249.232 472.137C249.232 470.478 247.888 469.133 246.229 469.133C244.57 469.133 243.225 470.478 243.225 472.137C243.225 473.796 244.57 475.141 246.229 475.141Z" stroke="#F7CBDF" stroke-miterlimit="10"/>
        <path d="M243.225 460.006C244.884 460.006 246.229 458.661 246.229 457.002C246.229 455.343 244.884 453.998 243.225 453.998C241.567 453.998 240.222 455.343 240.222 457.002C240.222 458.661 241.567 460.006 243.225 460.006Z" stroke="#F7CBDF" stroke-miterlimit="10"/>
        <path d="M225.261 476.485C226.92 476.485 228.265 475.14 228.265 473.481C228.265 471.822 226.92 470.477 225.261 470.477C223.602 470.477 222.257 471.822 222.257 473.481C222.257 475.14 223.602 476.485 225.261 476.485Z" stroke="#F7CBDF" stroke-miterlimit="10"/>
        <path d="M114.592 426.676V433.039" stroke="#F7CBDF" stroke-width="2" stroke-miterlimit="10"/>
        <path d="M131.853 441.66V448.023" stroke="#F7CBDF" stroke-width="2" stroke-miterlimit="10"/>
        <path d="M95.5691 445.461L101.392 448.021" stroke="#F7CBDF" stroke-width="2" stroke-miterlimit="10"/>
        <path d="M65.261 455.342V461.705" stroke="#F7CBDF" stroke-width="2" stroke-miterlimit="10"/>
        <path d="M95.5691 471.959V478.322" stroke="#F7CBDF" stroke-width="2" stroke-miterlimit="10"/>
        <path d="M188.737 498.086L193.476 502.326" stroke="#F7CBDF" stroke-width="2" stroke-miterlimit="10"/>
        <path d="M125.529 453.822V460.185" stroke="#F7CBDF" stroke-width="2" stroke-miterlimit="10"/>
        <path d="M236.458 501.564L242.611 508.961" stroke="#F7CBDF" stroke-width="2" stroke-miterlimit="10"/>
        <path d="M217.796 495.246L214.932 500.925" stroke="#F7CBDF" stroke-width="2" stroke-miterlimit="10"/>
        <path d="M172.027 502.084V508.441" stroke="#F7CBDF" stroke-width="2" stroke-miterlimit="10"/>
        <path d="M228.265 518.373V524.736" stroke="#F7CBDF" stroke-width="2" stroke-miterlimit="10"/>
        <path d="M72.6685 479.572V485.935" stroke="#F7CBDF" stroke-width="2" stroke-miterlimit="10"/>
        <path d="M54.8309 497.744V504.107" stroke="#F7CBDF" stroke-width="2" stroke-miterlimit="10"/>
        <path d="M265.207 488.996V495.359" stroke="#F7CBDF" stroke-width="2" stroke-miterlimit="10"/>
        <path d="M271.354 420.32V426.677" stroke="#F7CBDF" stroke-width="2" stroke-miterlimit="10"/>
        <path d="M262.299 442.281V448.644" stroke="#F7CBDF" stroke-width="2" stroke-miterlimit="10"/>
        <path d="M284.426 439.055L288.082 444.264" stroke="#F7CBDF" stroke-width="2" stroke-miterlimit="10"/>
        <path d="M291.023 460.098L288.234 465.821" stroke="#F7CBDF" stroke-width="2" stroke-miterlimit="10"/>
        <path d="M277.469 472.518V478.881" stroke="#F7CBDF" stroke-width="2" stroke-miterlimit="10"/>
        <path d="M78.3969 552.293V558.656" stroke="#F7CBDF" stroke-width="2" stroke-miterlimit="10"/>
        <path d="M69.798 594.434V600.797" stroke="#F7CBDF" stroke-width="2" stroke-miterlimit="10"/>
        <path d="M105.087 578.525V584.888" stroke="#F7CBDF" stroke-width="2" stroke-miterlimit="10"/>
        <path d="M46.7834 531.676L49.5969 537.38" stroke="#F7CBDF" stroke-width="2" stroke-miterlimit="10"/>
        <path d="M56.2186 562.846L59.0384 568.55" stroke="#F7CBDF" stroke-width="2" stroke-miterlimit="10"/>
        <path d="M256.836 521.865L259.656 527.569" stroke="#F7CBDF" stroke-width="2" stroke-miterlimit="10"/>
        <path d="M254.454 555.139L259.225 564.791" stroke="#F7CBDF" stroke-width="2" stroke-miterlimit="10"/>
        <path d="M79.7973 527.746L76.9965 533.457" stroke="#F7CBDF" stroke-width="2" stroke-miterlimit="10"/>
        <path d="M216.719 552.293L213.874 557.984" stroke="#F7CBDF" stroke-width="2" stroke-miterlimit="10"/>
        <path d="M103.224 558.984L99.3457 564.029" stroke="#F7CBDF" stroke-width="2" stroke-miterlimit="10"/>
        <path d="M88.4531 593.9L92.9458 603.002" stroke="#F7CBDF" stroke-width="2" stroke-miterlimit="10"/>
        <path d="M136.637 411.416L139.374 416.949" stroke="#F7CBDF" stroke-width="2" stroke-miterlimit="10"/>
        <path d="M145.711 607.203L148.531 612.907" stroke="#F7CBDF" stroke-width="2" stroke-miterlimit="10"/>
        <path opacity="0.71" d="M151.598 737.977C167.629 731.506 188.977 720.953 211.194 703.752C234.05 686.051 249.904 667.443 260.252 653.246C247.775 674.503 233.987 689.201 223.956 698.454C217.606 704.31 207.202 713.792 191.107 722.69C175.797 731.157 161.743 735.562 151.598 737.977Z" fill="#3F3B3A"/>
        <path d="M120.371 644.641C117.994 662.475 116.626 682.832 117.424 705.224C119.388 760.142 133.614 804.868 146.693 835.701" stroke="#2A343B" stroke-width="2" stroke-miterlimit="10"/>
        <path d="M176.139 594.661C177.958 593.647 194.364 584.742 205.37 591.669C219.007 600.251 217.987 629.12 202.88 642.043C192.938 650.548 179.922 649.559 176.139 649.141V594.661Z" fill="#EBBBAA"/>
        <path d="M158.181 592.695L153.879 646.63L158.181 652.201V592.695Z" fill="#8F384A"/>
        <path d="M238.213 668.947C232.504 674.626 224.672 681.363 214.47 687.6C205.903 692.835 197.842 696.377 191.107 698.817" fill="#595857"/>
        <path d="M484.246 261.233C486.438 261.715 490.43 262.266 494.967 260.897C505.334 257.766 509.041 247.461 509.491 246.143C511.157 241.256 510.84 236.858 510.384 234.177C517.177 238.411 546.731 255.998 574.942 248.12C579.358 246.884 587.602 244.47 594.522 237.042C596.771 234.627 606.479 224.201 603.913 210.277C601.885 199.287 593.502 193.146 591.303 191.631" stroke="#2A343B" stroke-miterlimit="10"/>
        <path d="M569.891 209.029C563.415 204.352 549.842 196.005 531.225 195.004C525.681 194.706 516.112 194.294 505.315 198.775C486.92 206.412 478.619 222.58 476.217 227.77C468.081 225.463 459.837 227.257 455.648 232.555C450.446 239.128 453.557 248.501 455.154 253.306C456.808 258.281 459.171 261.513 462.34 265.772C465.667 270.234 470.97 276.477 478.948 282.796" stroke="#2A343B" stroke-miterlimit="10"/>
        <path d="M465.369 281.73C466.972 282.377 468.86 283.328 470.786 284.741C475.476 288.176 477.877 292.473 479.018 294.977C478.409 294.096 476.35 291.351 472.592 290.356C470.685 289.849 469.025 289.982 467.979 290.153" stroke="black" stroke-miterlimit="10"/>
        <path d="M530.744 263.071C530.332 262.672 529.457 262.026 524.851 262.19C521.549 262.311 519.864 262.387 518.362 263.319C517.044 264.136 515.2 265.854 515.599 266.893C515.777 267.362 516.816 265.657 524.553 265.347C530.44 265.112 531.396 266.925 531.783 265.999C532.182 265.036 531.441 263.743 530.744 263.071Z" fill="#2A343B"/>
        <path d="M557.459 261.308C558.226 260.104 559.861 260.104 562.389 260.098C564.556 260.091 567.382 260.662 568.865 261.891C569.701 262.582 570.196 263.153 569.682 263.748C568.795 264.775 567.452 262.779 563.701 263.115C560.716 263.381 560.602 264.946 558.08 265.238C556.743 265.396 556.718 262.474 557.459 261.308Z" fill="#2A343B"/>
        <path d="M552.58 265.244L559.924 306.675L553.72 308.208" stroke="#2A343B" stroke-width="2" stroke-miterlimit="10"/>
        <path d="M527.848 282.794C529.976 282.794 531.701 280.161 531.701 276.913C531.701 273.664 529.976 271.031 527.848 271.031C525.72 271.031 523.995 273.664 523.995 276.913C523.995 280.161 525.72 282.794 527.848 282.794Z" fill="#2A343B"/>
        <path d="M562.085 277.908C564.192 277.908 565.899 275.621 565.899 272.8C565.899 269.978 564.192 267.691 562.085 267.691C559.978 267.691 558.27 269.978 558.27 272.8C558.27 275.621 559.978 277.908 562.085 277.908Z" fill="#2A343B"/>
        <path d="M527.183 313.008C532.315 322.096 541.744 327.262 550.907 326.108C559.056 325.081 564.068 319.422 565.437 317.755C559.525 317.698 552.909 317.33 545.743 316.418C538.918 315.549 532.708 314.345 527.183 313.008Z" fill="#2A343B"/>
        <path d="M565.855 362.727C565.868 378.876 565.887 395.025 565.899 411.18L536.035 388.827L522.202 422.227L475.241 352.473L523.241 426.594L536.13 389.15C546.357 397.395 556.585 405.635 566.806 413.88C566.489 396.825 566.172 379.776 565.855 362.727Z" fill="#2A343B" stroke="#2A343B" stroke-width="0.5" stroke-miterlimit="10"/>
        <path d="M530.617 405.16L536.041 422.228L522.202 584.217L552.58 639.743L569.891 582.227L546.877 422.228L550.432 400.679L536.13 389.15L530.617 405.16Z" fill="#2A343B" stroke="#2A343B" stroke-width="0.5" stroke-miterlimit="10"/>
        <path d="M401.641 680.602C401.679 692.733 401.717 704.857 401.762 716.988C415.024 718.395 433.724 719.726 456.079 719.155C465.901 718.902 500.41 717.666 566.476 701.834C595.669 694.837 633.15 684.487 676.15 668.947C674.211 664.231 672.266 659.516 670.327 654.801C634.607 667.153 579.403 683.169 524.629 685.235C511.651 685.723 487.908 685.837 462.162 684.842C437.424 683.885 416.697 682.136 401.641 680.602Z" fill="#2A343B" stroke="#2A343B" stroke-width="0.5" stroke-miterlimit="10"/>
        <path d="M401.825 644.407C412.933 647.183 424.041 649.959 435.149 652.741C435.428 649.547 435.707 646.352 435.979 643.158C436.657 648.748 437.329 654.338 438.007 659.928C425.949 654.756 413.884 649.578 401.825 644.407Z" fill="#2A343B" stroke="#2A343B" stroke-width="0.5" stroke-miterlimit="10"/>
        <path d="M415.347 485.226L444.578 446.369L410.734 548.364L415.347 485.226Z" fill="#2A343B" stroke="#2A343B" stroke-width="0.5" stroke-miterlimit="10"/>
        <path d="M606.169 437.242C614.058 460.686 621.833 484.529 629.488 508.777C643.358 552.718 656.146 595.866 667.938 638.127C670.676 636.333 673.413 634.539 676.144 632.746L628.765 490.151L606.169 437.242Z" fill="#2A343B"/>
        <path d="M427.653 563.111C424.181 588.165 420.702 613.225 417.229 638.278C418.642 639.089 420.062 639.901 421.475 640.712L428.242 568.27L427.653 563.111Z" fill="#2A343B"/>
        <path d="M465.369 375.314V384.111" stroke="#84ADD1" stroke-width="3" stroke-miterlimit="10"/>
        <path d="M440.104 369.793L438.406 377.31" stroke="#84ADD1" stroke-width="3" stroke-miterlimit="10"/>
        <path d="M402.357 385.354L410.734 388.827" stroke="#84ADD1" stroke-width="3" stroke-miterlimit="10"/>
        <path d="M444.578 395.596L440.104 404.209" stroke="#84ADD1" stroke-width="3" stroke-miterlimit="10"/>
        <path d="M444.578 422.229H453.716" stroke="#84ADD1" stroke-width="3" stroke-miterlimit="10"/>
        <path d="M479.018 405.908L485.266 408.462" stroke="#84ADD1" stroke-width="3" stroke-miterlimit="10"/>
        <path d="M482.959 363.932L482.142 372.906" stroke="#84ADD1" stroke-width="3" stroke-miterlimit="10"/>
        <path d="M406.546 404.209L402.357 413.836" stroke="#84ADD1" stroke-width="3" stroke-miterlimit="10"/>
        <path d="M363.311 407.188L371.282 408.461" stroke="#84ADD1" stroke-width="3" stroke-miterlimit="10"/>
        <path d="M335.113 430.484L342.527 433.039" stroke="#84ADD1" stroke-width="3" stroke-miterlimit="10"/>
        <path d="M382.067 424.756V433.039" stroke="#84ADD1" stroke-width="3" stroke-miterlimit="10"/>
        <path d="M406.546 435.607H417.236" stroke="#84ADD1" stroke-width="3" stroke-miterlimit="10"/>
        <path d="M422.742 451.496V460.838" stroke="#84ADD1" stroke-width="3" stroke-miterlimit="10"/>
        <path d="M379.431 467.695L375.287 476.733" stroke="#84ADD1" stroke-width="3" stroke-miterlimit="10"/>
        <path d="M364.743 446.369H358.717" stroke="#84ADD1" stroke-width="3" stroke-miterlimit="10"/>
        <path d="M310.894 460.838L312.776 467.695" stroke="#84ADD1" stroke-width="3" stroke-miterlimit="10"/>
        <path d="M318.916 484.092L316.166 492.179" stroke="#84ADD1" stroke-width="3" stroke-miterlimit="10"/>
        <path d="M281.898 501.836L285.985 508.396" stroke="#84ADD1" stroke-width="3" stroke-miterlimit="10"/>
        <path d="M271.354 531.348H278.508" stroke="#84ADD1" stroke-width="3" stroke-miterlimit="10"/>
        <path d="M325.956 521.555H335.113" stroke="#84ADD1" stroke-width="3" stroke-miterlimit="10"/>
        <path d="M361.733 498.953V503.637" stroke="#84ADD1" stroke-width="3" stroke-miterlimit="10"/>
        <path d="M342.527 478.24L349.681 481.251" stroke="#84ADD1" stroke-width="3" stroke-miterlimit="10"/>
        <path d="M487.851 451.496L482.142 464.267" stroke="#84ADD1" stroke-width="3" stroke-miterlimit="10"/>
        <path d="M442.341 484.092L431.987 492.179" stroke="#84ADD1" stroke-width="3" stroke-miterlimit="10"/>
        <path d="M457.701 446.369V457.004" stroke="#84ADD1" stroke-width="3" stroke-miterlimit="10"/>
        <path d="M503.154 418.318V429.657" stroke="#84ADD1" stroke-width="3" stroke-miterlimit="10"/>
        <path d="M465.369 484.092L472.193 488.135" stroke="#84ADD1" stroke-width="3" stroke-miterlimit="10"/>
        <path d="M503.154 481.252V492.178" stroke="#84ADD1" stroke-width="3" stroke-miterlimit="10"/>
        <path d="M479.018 508.396L482.142 521.554" stroke="#84ADD1" stroke-width="3" stroke-miterlimit="10"/>
        <path d="M375.287 531.348V548.365" stroke="#84ADD1" stroke-width="3" stroke-miterlimit="10"/>
        <path d="M330.538 563.111H338.82" stroke="#84ADD1" stroke-width="3" stroke-miterlimit="10"/>
        <path d="M307.194 531.348L305.217 548.365" stroke="#84ADD1" stroke-width="3" stroke-miterlimit="10"/>
        <path d="M367.297 584.488L349.681 588.583" stroke="#84ADD1" stroke-width="3" stroke-miterlimit="10"/>
        <path d="M388.645 572.561L392.39 584.488" stroke="#84ADD1" stroke-width="3" stroke-miterlimit="10"/>
        <path d="M301.345 563.111V578.525" stroke="#84ADD1" stroke-width="3" stroke-miterlimit="10"/>
        <path d="M375.287 614.314H388.296" stroke="#84ADD1" stroke-width="3" stroke-miterlimit="10"/>
        <path d="M439.255 570.818L438.406 578.525" stroke="#84ADD1" stroke-width="3" stroke-miterlimit="10"/>
        <path d="M401.641 548.363L401.755 561.419" stroke="#84ADD1" stroke-width="3" stroke-miterlimit="10"/>
        <path d="M511.322 554.893L503.154 561.421" stroke="#84ADD1" stroke-width="3" stroke-miterlimit="10"/>
        <path d="M578.078 433.041L569.891 446.37" stroke="#84ADD1" stroke-width="3" stroke-miterlimit="10"/>
        <path d="M580.828 488.135L588.084 492.178" stroke="#84ADD1" stroke-width="3" stroke-miterlimit="10"/>
        <path d="M594.015 446.369V457.004" stroke="#84ADD1" stroke-width="3" stroke-miterlimit="10"/>
        <path d="M585.182 405.908L594.015 409.02" stroke="#84ADD1" stroke-width="3" stroke-miterlimit="10"/>
        <path d="M641.16 466.193V478.242" stroke="#84ADD1" stroke-width="3" stroke-miterlimit="10"/>
        <path d="M625.008 433.041H631.864" stroke="#84ADD1" stroke-width="3" stroke-miterlimit="10"/>
        <path d="M652.033 508.396L646.058 516.091" stroke="#84ADD1" stroke-width="3" stroke-miterlimit="10"/>
        <path d="M641.16 490.156L652.033 492.178" stroke="#84ADD1" stroke-width="3" stroke-miterlimit="10"/>
        <path d="M670.321 498.953V508.396" stroke="#84ADD1" stroke-width="3" stroke-miterlimit="10"/>
        <path d="M654.676 531.348L659.289 537.686" stroke="#84ADD1" stroke-width="3" stroke-miterlimit="10"/>
        <path d="M604.337 481.252L603.311 492.178" stroke="#84ADD1" stroke-width="3" stroke-miterlimit="10"/>
        <path d="M565.899 466.193L566.647 476.587" stroke="#84ADD1" stroke-width="3" stroke-miterlimit="10"/>
        <path d="M594.015 521.555H600.612" stroke="#84ADD1" stroke-width="3" stroke-miterlimit="10"/>
        <path d="M569.891 512.244V523.925" stroke="#84ADD1" stroke-width="3" stroke-miterlimit="10"/>
        <path d="M681.708 534.516L676.144 543.712" stroke="#84ADD1" stroke-width="3" stroke-miterlimit="10"/>
        <path d="M659.289 570.818L667.862 578.525" stroke="#84ADD1" stroke-width="3" stroke-miterlimit="10"/>
        <path d="M614.457 548.363L611.821 558.155" stroke="#84ADD1" stroke-width="3" stroke-miterlimit="10"/>
        <path d="M584.459 539.852V553.256" stroke="#84ADD1" stroke-width="3" stroke-miterlimit="10"/>
        <path d="M631.864 554.893L628.436 563.113" stroke="#84ADD1" stroke-width="3" stroke-miterlimit="10"/>
        <path d="M472.193 543.711L480.577 548.363" stroke="#84ADD1" stroke-width="3" stroke-miterlimit="10"/>
        <path d="M439.097 518.088L428.249 531.347" stroke="#84ADD1" stroke-width="3" stroke-miterlimit="10"/>
        <path d="M614.457 618.859L628.436 614.314" stroke="#84ADD1" stroke-width="3" stroke-miterlimit="10"/>
        <path d="M589.598 584.488L600.612 586.535" stroke="#84ADD1" stroke-width="3" stroke-miterlimit="10"/>
        <path d="M649.049 623.359L646.058 634.051" stroke="#84ADD1" stroke-width="3" stroke-miterlimit="10"/>
        <path d="M628.436 588.583L636.211 584.488" stroke="#84ADD1" stroke-width="3" stroke-miterlimit="10"/>
        <path d="M595.105 628.701L600.612 638.126" stroke="#84ADD1" stroke-width="3" stroke-miterlimit="10"/>
        <path d="M476.388 678.232L487.851 674.277" stroke="#84ADD1" stroke-width="3" stroke-miterlimit="10"/>
        <path d="M580.829 659.928L578.078 674.277" stroke="#84ADD1" stroke-width="3" stroke-miterlimit="10"/>
        <path d="M646.058 646.582L636.211 651.544" stroke="#84ADD1" stroke-width="3" stroke-miterlimit="10"/>
        <path d="M511.322 678.232H526.942" stroke="#84ADD1" stroke-width="3" stroke-miterlimit="10"/>
        <path d="M428.249 668.947L422.742 663.725" stroke="#84ADD1" stroke-width="3" stroke-miterlimit="10"/>
        <path d="M536.041 659.928V667.102" stroke="#84ADD1" stroke-width="3" stroke-miterlimit="10"/>
        <path d="M46.099 78.1964C49.7996 72.2705 95.6958 0 95.6958 0L113.464 8.96805L68.3089 81.1561L131.967 142.608L125.187 149.269L46.099 78.1964Z" fill="#2A343B"/>
        <path d="M130.281 352.474C129.166 344.203 127.385 337.827 125.979 333.543C124.09 327.826 122.297 324.131 120.605 316.861C120.605 316.861 119.319 311.341 118.774 306.207C117.228 291.63 122.322 273.409 132.715 258.559C136.58 253.039 140.084 248.032 146.383 243.602C165.823 229.938 190.327 236.966 195.789 238.671C198.134 236.947 202.303 234.412 207.899 233.74C216.542 232.707 223.183 236.77 227.834 239.711C242.376 248.894 248.276 263.896 250.373 270.322" stroke="#2A343B" stroke-miterlimit="10"/>
    </g>
    <defs>
        <clipPath id="clip0">
            <rect width="1440" height="914" fill="white"/>
        </clipPath>
    </defs>
</svg>
