<svg width="18" height="25" viewBox="0 0 18 25" fill="none" xmlns="http://www.w3.org/2000/svg">
<path d="M6.14697 21.9512H11.2688" stroke="#F4B400" stroke-width="1.5" stroke-linecap="round" stroke-linejoin="round"/>
<path d="M7.1709 24H10.2442" stroke="#F4B400" stroke-width="1.5" stroke-linecap="round" stroke-linejoin="round"/>
<mask id="path-3-inside-1" fill="white">
<path fill-rule="evenodd" clip-rule="evenodd" d="M12.4281 16.5827C15.3761 15.1875 17.4153 12.1857 17.4153 8.70764C17.4153 3.89854 13.5167 0 8.70764 0C3.89854 0 0 3.89854 0 8.70764C0 12.1863 2.03988 15.1886 4.98873 16.5834C5.05854 18.4887 5.52963 19.9031 8.70842 19.9031C11.8876 19.9031 12.3584 18.4884 12.4281 16.5827Z"/>
</mask>
<path d="M12.4281 16.5827L11.7865 15.2269L10.9625 15.6168L10.9292 16.5278L12.4281 16.5827ZM4.98873 16.5834L6.48772 16.5285L6.45433 15.6174L5.63013 15.2275L4.98873 16.5834ZM15.9153 8.70764C15.9153 11.5843 14.2301 14.0704 11.7865 15.2269L13.0698 17.9385C16.5222 16.3046 18.9153 12.7871 18.9153 8.70764H15.9153ZM8.70764 1.5C12.6883 1.5 15.9153 4.72697 15.9153 8.70764H18.9153C18.9153 3.07012 14.3452 -1.5 8.70764 -1.5V1.5ZM1.5 8.70764C1.5 4.72697 4.72697 1.5 8.70764 1.5V-1.5C3.07012 -1.5 -1.5 3.07012 -1.5 8.70764H1.5ZM5.63013 15.2275C3.18579 14.0713 1.5 11.5848 1.5 8.70764H-1.5C-1.5 12.7878 0.893977 16.3059 4.34733 17.9394L5.63013 15.2275ZM8.70842 18.4031C7.29317 18.4031 6.91094 18.0822 6.80584 17.9635C6.65933 17.798 6.52155 17.4517 6.48772 16.5285L3.48973 16.6384C3.52572 17.6205 3.65839 18.934 4.55958 19.952C5.50218 21.0168 6.94489 21.4031 8.70842 21.4031V18.4031ZM10.9292 16.5278C10.8954 17.4514 10.7576 17.7978 10.6111 17.9634C10.506 18.0821 10.1239 18.4031 8.70842 18.4031V21.4031C10.4722 21.4031 11.9151 21.0167 12.8576 19.9516C13.7587 18.9334 13.8912 17.6197 13.9271 16.6375L10.9292 16.5278Z" fill="#F4B400" mask="url(#path-3-inside-1)"/>
<path d="M10.2442 8.48706L8.19531 9.85296L10.2442 11.2189L8.19531 12.5848" stroke="#F4B400" stroke-width="1.5" stroke-linecap="round" stroke-linejoin="round"/>
</svg>
